{"accessors" : [{"bufferView" : 0, "byteOffset" : 0, "componentType" : 5125, "count" : 107388, "type" : "SCALAR", "max" : [71591], "min" : [0]}, {"bufferView" : 1, "byteOffset" : 0, "componentType" : 5126, "count" : 71592, "type" : "VEC3", "max" : [3.593247890472412, 9.150588035583496, 8.249528884887695], "min" : [-6.108136177062988, 0.5206639766693115, -7.429625034332275], "name" : "POSITION"}, {"bufferView" : 1, "byteOffset" : 12, "componentType" : 5126, "count" : 71592, "type" : "VEC2", "max" : [0.9836069941520691, 0.9831219911575317], "min" : [0.016877999529242516, 0.0010430216789245605], "name" : "TEXCOORD_0"}, {"bufferView" : 1, "byteOffset" : 20, "componentType" : 5126, "count" : 71592, "type" : "VEC3", "max" : [0.9999613165855408, 1.0000028610229492, 0.9998611211776733], "min" : [-0.9999959468841553, -0.9999897480010986, -0.999773383140564], "name" : "NORMAL"}], "asset" : {"generator" : "Aspose.3D 24.4.1", "version" : "2.0"}, "buffers" : [{"uri" : "data:application/octet-stream;base64,", "byteLength" : 2720504}], "bufferViews" : [{"buffer" : 0, "byteOffset" : 0, "byteLength" : 429552, "target" : 34963}, {"buffer" : 0, "byteOffset" : 429556, "byteLength" : 2290944, "byteStride" : 32, "target" : 34962}], "meshes" : [{"primitives" : [{"attributes" : {"POSITION" : 1, "TEXCOORD_0" : 2, "NORMAL" : 3}, "indices" : 0, "mode" : 4}], "name" : ""}], "nodes" : [{"mesh" : 0, "name" : "Mostro:Untitledplesio_LOD_0"}], "scene" : 0, "scenes" : [{"nodes" : [0]}]}